<svg width="30" height="30" viewBox="0 0 30 30" fill="none" xmlns="http://www.w3.org/2000/svg">
<path d="M16.1537 13.8462H22.3075V16.1538H16.1537V22.3077H13.846V16.1538H7.69214V13.8462H13.846V7.69231H16.1537V13.8462Z" fill="black"/>
<path fill-rule="evenodd" clip-rule="evenodd" d="M0 15C0 6.71572 6.71572 0 15 0C23.2843 0 30 6.71572 30 15C30 23.2843 23.2843 30 15 30C6.71572 30 0 23.2843 0 15ZM15 2.30769C7.99023 2.30769 2.30769 7.99023 2.30769 15C2.30769 22.0097 7.99023 27.6923 15 27.6923C22.0097 27.6923 27.6923 22.0097 27.6923 15C27.6923 7.99023 22.0097 2.30769 15 2.30769Z" fill="black"/>
</svg>
