<svg width="30" height="30" viewBox="0 0 30 30" fill="none" xmlns="http://www.w3.org/2000/svg">
<path d="M24.4124 5.57849C25.8729 7.03455 26.9751 8.80988 27.6323 10.7646C28.2895 12.7192 28.4838 14.7998 28.1997 16.8423C27.9156 18.8849 27.1609 20.8335 25.9952 22.5347C24.8295 24.2358 23.2845 25.643 21.4822 26.6453C19.6868 27.6153 17.6944 28.1643 15.6555 28.2509C13.6167 28.3374 11.5849 27.9592 9.71375 27.1448C7.84264 26.3305 6.18125 25.1013 4.85525 23.5502C3.52925 21.9992 2.57337 20.167 2.05991 18.1921C1.52532 15.9665 1.56728 13.6414 2.18181 11.4366C2.79635 9.23179 3.96315 7.22015 5.57188 5.5919C6.32792 4.82083 5.14273 3.63407 4.3867 4.40681C1.93481 6.86117 0.409801 10.0897 0.0714932 13.5422C-0.266815 16.9948 0.602505 20.4579 2.53135 23.3414C4.46019 26.225 7.32922 28.3506 10.6496 29.3562C13.9701 30.3618 17.5365 30.1851 20.7412 28.8562C23.0204 27.9124 25.0316 26.421 26.5965 24.5141C28.1613 22.6072 29.2316 20.3438 29.7124 17.9244C30.1932 15.505 30.0697 13.0043 29.3528 10.6441C28.6359 8.2838 27.3478 6.13682 25.6027 4.3934C24.8466 3.62066 23.6614 4.80742 24.4175 5.57849H24.4124Z" fill="black"/>
<path d="M20.6206 12.6471L15.5915 17.6758C15.4368 17.8337 15.2259 17.9241 15.0048 17.9272C14.8926 17.9271 14.7815 17.9049 14.678 17.8617C14.5744 17.8186 14.4804 17.7554 14.4013 17.6758L9.37223 12.6471C9.2144 12.4893 9.12573 12.2753 9.12573 12.0521C9.12573 11.8289 9.2144 11.6148 9.37223 11.457C9.53007 11.2992 9.74413 11.2105 9.96734 11.2105C10.1905 11.2105 10.4046 11.2992 10.5624 11.457L14.1498 15.0441V0.838113C14.1533 0.616909 14.2427 0.405735 14.3992 0.249301C14.5556 0.0928676 14.7668 0.00345693 14.988 0C15.2103 0 15.4235 0.0883007 15.5807 0.245477C15.7379 0.402654 15.8262 0.615832 15.8262 0.838113V15.0693L19.4304 11.4486C19.5085 11.3705 19.6013 11.3085 19.7034 11.2662C19.8055 11.2239 19.915 11.2021 20.0255 11.2021C20.136 11.2021 20.2454 11.2239 20.3475 11.2662C20.4497 11.3085 20.5424 11.3705 20.6206 11.4486C20.6987 11.5268 20.7607 11.6195 20.803 11.7216C20.8453 11.8237 20.8671 11.9332 20.8671 12.0437C20.8671 12.1542 20.8453 12.2636 20.803 12.3657C20.7607 12.4678 20.6987 12.5606 20.6206 12.6387V12.6471Z" fill="black"/>
</svg>
