<svg width="34" height="40" viewBox="0 0 34 40" fill="none" xmlns="http://www.w3.org/2000/svg">
<path d="M17 30.4762C15.8728 30.4762 14.7918 30.0748 13.9948 29.3604C13.1978 28.646 12.75 27.677 12.75 26.6667C12.75 24.5524 14.6412 22.8571 17 22.8571C18.1272 22.8571 19.2082 23.2585 20.0052 23.9729C20.8022 24.6874 21.25 25.6563 21.25 26.6667C21.25 27.677 20.8022 28.646 20.0052 29.3604C19.2082 30.0748 18.1272 30.4762 17 30.4762ZM29.75 36.1905V17.1429H4.25V36.1905H29.75ZM29.75 13.3333C30.8772 13.3333 31.9582 13.7347 32.7552 14.4491C33.5522 15.1635 34 16.1325 34 17.1429V36.1905C34 37.2008 33.5522 38.1698 32.7552 38.8842C31.9582 39.5986 30.8772 40 29.75 40H4.25C3.12283 40 2.04183 39.5986 1.2448 38.8842C0.447766 38.1698 0 37.2008 0 36.1905V17.1429C0 15.0286 1.89125 13.3333 4.25 13.3333H6.375V9.52381C6.375 6.99794 7.49442 4.57552 9.48699 2.78946C11.4796 1.0034 14.1821 0 17 0C18.3953 0 19.7769 0.246341 21.066 0.724957C22.3551 1.20357 23.5264 1.90509 24.513 2.78946C25.4996 3.67383 26.2823 4.72372 26.8162 5.87921C27.3502 7.03469 27.625 8.27312 27.625 9.52381V13.3333H29.75ZM17 3.80952C15.3092 3.80952 13.6877 4.41156 12.4922 5.4832C11.2966 6.55484 10.625 8.00829 10.625 9.52381V13.3333H23.375V9.52381C23.375 8.00829 22.7034 6.55484 21.5078 5.4832C20.3123 4.41156 18.6908 3.80952 17 3.80952Z" fill="#B2B2B2"/>
</svg>
