<svg width="34" height="40" viewBox="0 0 34 40" fill="none" xmlns="http://www.w3.org/2000/svg">
<path d="M17 20.6897C15.3731 20.6897 13.7827 20.0829 12.43 18.9462C11.0773 17.8095 10.0229 16.1939 9.40035 14.3036C8.77775 12.4134 8.61485 10.3334 8.93225 8.32665C9.24964 6.31995 10.0331 4.47668 11.1835 3.02993C12.3339 1.58318 13.7996 0.597935 15.3952 0.198778C16.9909 -0.20038 18.6448 0.00448227 20.1479 0.787458C21.6509 1.57043 22.9356 2.89636 23.8395 4.59755C24.7434 6.29875 25.2258 8.29882 25.2258 10.3448C25.2258 13.0884 24.3592 15.7197 22.8165 17.6597C21.2739 19.5998 19.1816 20.6897 17 20.6897ZM17 4.13793C16.0239 4.13793 15.0696 4.50196 14.258 5.18399C13.4464 5.86601 12.8138 6.83539 12.4402 7.96955C12.0667 9.10372 11.9689 10.3517 12.1594 11.5557C12.3498 12.7598 12.8198 13.8657 13.5101 14.7338C14.2003 15.6018 15.0797 16.193 16.0371 16.4325C16.9945 16.672 17.9869 16.549 18.8887 16.0793C19.7906 15.6095 20.5614 14.8139 21.1037 13.7932C21.646 12.7725 21.9355 11.5724 21.9355 10.3448C21.9355 8.69866 21.4155 7.11991 20.4899 5.95589C19.5643 4.79187 18.309 4.13793 17 4.13793ZM32.3548 40C31.9203 39.9929 31.5051 39.7726 31.1978 39.3861C30.8905 38.9996 30.7154 38.4775 30.7097 37.931C30.7097 32.5517 28.3845 28.9655 17 28.9655C5.61548 28.9655 3.29032 32.5517 3.29032 37.931C3.29032 38.4798 3.11699 39.006 2.80847 39.394C2.49994 39.782 2.08149 40 1.64516 40C1.20884 40 0.790384 39.782 0.481856 39.394C0.173329 39.006 0 38.4798 0 37.931C0 24.8276 11.911 24.8276 17 24.8276C22.089 24.8276 34 24.8276 34 37.931C33.9943 38.4775 33.8192 38.9996 33.5119 39.3861C33.2046 39.7726 32.7894 39.9929 32.3548 40Z" fill="#B2B2B2"/>
</svg>
