<svg width="181" height="73" viewBox="0 0 181 73" fill="none" xmlns="http://www.w3.org/2000/svg">
<path d="M33 0C41.7521 0 50.1458 2.88318 56.3345 8.01527C62.5232 13.1474 66 20.108 66 27.3659C66 48.2927 44.6471 66 33 66C21.3529 66 0 48.2927 0 27.3659C0 20.108 3.47678 13.1474 9.66548 8.01527C15.8542 2.88318 24.2479 0 33 0ZM33 6.43902C26.3072 6.43902 19.8885 8.64381 15.156 12.5683C10.4234 16.4929 7.76471 21.8157 7.76471 27.3659C7.76471 42.8002 23.9347 59.561 33 59.561C42.0653 59.561 58.2353 42.8002 58.2353 27.3659C58.2353 21.8157 55.5766 16.4929 50.844 12.5683C46.1115 8.64381 39.6928 6.43902 33 6.43902ZM54.3529 28.9756C54.9741 28.9756 55.5914 29.0014 56.1971 29.0561C56.4722 31.2048 56.1642 33.3774 55.2957 35.4147C54.4272 37.452 53.0202 39.3024 51.1777 40.8303C49.3352 42.3582 47.1039 43.525 44.6471 44.2453C42.1904 44.9655 39.5706 45.2208 36.9794 44.9927C36.7208 42.9724 36.9775 40.9297 37.7327 38.997C38.488 37.0644 39.725 35.285 41.3634 33.7746C43.0017 32.2641 45.0049 31.0563 47.2427 30.2295C49.4806 29.4028 51.9031 28.9755 54.3529 28.9756ZM11.6471 28.9756C14.0969 28.9755 16.5194 29.4028 18.7573 30.2295C20.9951 31.0563 22.9983 32.2641 24.6366 33.7746C26.275 35.285 27.512 37.0644 28.2673 38.997C29.0225 40.9297 29.2792 42.9724 29.0206 44.9927C26.4294 45.2208 23.8096 44.9655 21.3529 44.2453C18.8961 43.525 16.6648 42.3582 14.8223 40.8303C12.9798 39.3024 11.5727 37.452 10.7043 35.4147C9.83576 33.3774 9.5278 31.2048 9.80294 29.0561C10.4047 29.0014 11.0259 28.9756 11.6471 28.9756Z" fill="black"/>
<path d="M76.32 47.04C76.2667 46.64 76.2667 46.2133 76.32 45.76C77.6533 45.6267 78.6 45.5067 79.16 45.4C79.72 45.2667 80.0667 45 80.2 44.6C80.3333 44.2 80.4 43.52 80.4 42.56V20.72H77.52C76.1067 20.72 74.9867 20.92 74.16 21.32C73.36 21.6933 72.7067 22.2667 72.2 23.04C71.72 23.8133 71.24 24.8 70.76 26C70.3333 26.0533 69.9067 26.0533 69.48 26C69.64 24.72 69.7867 23.4933 69.92 22.32C70.08 21.1467 70.2133 20.0133 70.32 18.92C72.0533 19.0267 73.9733 19.0933 76.08 19.12C78.1867 19.12 80.3733 19.12 82.64 19.12C84.9333 19.12 87.1333 19.12 89.24 19.12C91.3733 19.0933 93.2933 19.0267 95 18.92C95.1067 19.9867 95.2133 21.12 95.32 22.32C95.4267 23.4933 95.56 24.72 95.72 26C95.2667 26.0533 94.8267 26.0533 94.4 26C93.8933 24.7733 93.3867 23.7733 92.88 23C92.3733 22.2267 91.72 21.6533 90.92 21.28C90.1467 20.9067 89.0533 20.72 87.64 20.72H84.8V42.04C84.8 42.8667 84.8267 43.52 84.88 44C84.9333 44.48 85.08 44.8267 85.32 45.04C85.5867 45.2533 86 45.4133 86.56 45.52C87.12 45.6 87.8933 45.68 88.88 45.76C88.96 46.1867 88.96 46.6133 88.88 47.04C88.32 47.04 87.64 47.0267 86.84 47C86.0667 47 85.2933 47 84.52 47C83.7467 46.9733 83.0933 46.96 82.56 46.96C82.0533 46.96 81.4133 46.9733 80.64 47C79.8933 47 79.12 47 78.32 47C77.5467 47.0267 76.88 47.04 76.32 47.04ZM94.8847 47.04C94.8047 46.6133 94.8047 46.2 94.8847 45.8C95.7914 45.7467 96.458 45.6667 96.8847 45.56C97.3114 45.4267 97.5914 45.16 97.7247 44.76C97.858 44.36 97.9247 43.72 97.9247 42.84V33.88C97.9247 32.84 97.8714 32.0667 97.7647 31.56C97.6847 31.0533 97.4314 30.7067 97.0047 30.52C96.6047 30.3067 95.9114 30.1333 94.9247 30C94.8447 29.6267 94.8447 29.28 94.9247 28.96C95.9914 28.7467 97.0314 28.5067 98.0447 28.24C99.058 27.9467 100.125 27.5733 101.245 27.12L101.925 27.36V30.88C103.791 28.5067 105.698 27.32 107.645 27.32C108.578 27.32 109.271 27.5733 109.725 28.08C110.178 28.56 110.405 29.1067 110.405 29.72C110.405 30.44 110.165 31 109.685 31.4C109.205 31.7733 108.658 31.96 108.045 31.96C107.538 31.96 107.031 31.8267 106.525 31.56C106.045 31.2933 105.685 30.88 105.445 30.32C104.538 30.32 103.725 30.68 103.005 31.4C102.311 32.0933 101.965 32.9067 101.965 33.84V42.44C101.965 43.48 102.018 44.2267 102.125 44.68C102.258 45.1333 102.578 45.4267 103.085 45.56C103.618 45.6667 104.471 45.7467 105.645 45.8C105.698 46.1733 105.698 46.5867 105.645 47.04C104.738 47.04 103.805 47.0267 102.845 47C101.885 46.9733 100.898 46.96 99.8847 46.96C98.898 46.96 98.018 46.9733 97.2447 47C96.498 47.0267 95.7114 47.04 94.8847 47.04ZM121.291 47.04C120.544 47.04 119.771 47.0267 118.971 47C118.171 46.9733 117.304 46.96 116.371 46.96C115.518 46.96 114.651 46.9733 113.771 47C112.918 47.0267 112.091 47.04 111.291 47.04C111.211 46.6133 111.211 46.2 111.291 45.8C112.198 45.7467 112.864 45.6667 113.291 45.56C113.718 45.4267 113.998 45.16 114.131 44.76C114.264 44.36 114.331 43.72 114.331 42.84V33.88C114.331 32.84 114.291 32.0667 114.211 31.56C114.131 31.0533 113.878 30.7067 113.451 30.52C113.051 30.3067 112.344 30.1333 111.331 30C111.251 29.6267 111.251 29.28 111.331 28.96C112.504 28.7467 113.624 28.48 114.691 28.16C115.758 27.84 116.784 27.4933 117.771 27.12L118.451 27.36C118.424 28.1867 118.398 28.96 118.371 29.68C118.371 30.4 118.371 31.08 118.371 31.72V42.44C118.371 43.48 118.424 44.2267 118.531 44.68C118.664 45.1333 118.931 45.4267 119.331 45.56C119.758 45.6667 120.411 45.7467 121.291 45.8C121.371 46.2 121.371 46.6133 121.291 47.04ZM113.291 20.32C113.291 19.5467 113.558 18.8933 114.091 18.36C114.651 17.8267 115.318 17.56 116.091 17.56C116.838 17.56 117.478 17.8267 118.011 18.36C118.571 18.8933 118.851 19.5333 118.851 20.28C118.851 20.9733 118.584 21.6133 118.051 22.2C117.518 22.76 116.838 23.04 116.011 23.04C115.264 23.04 114.624 22.7733 114.091 22.24C113.558 21.7067 113.291 21.0667 113.291 20.32ZM129.365 27.12L130.045 27.36C130.018 28.1067 129.992 28.84 129.965 29.56C129.965 30.28 129.965 31.0133 129.965 31.76C129.965 31.9733 129.965 32.5067 129.965 33.36C129.965 34.2133 129.965 35.2133 129.965 36.36C129.992 37.5067 130.005 38.68 130.005 39.88C130.032 41.0533 130.045 42.1067 130.045 43.04C130.045 43.9467 130.045 44.5867 130.045 44.96C130.045 46.7733 129.965 48.2667 129.805 49.44C129.645 50.6133 129.392 51.5733 129.045 52.32C128.698 53.0933 128.218 53.8 127.605 54.44C125.898 56.28 124.032 57.2 122.005 57.2C120.938 57.2 120.192 56.9733 119.765 56.52C119.312 56.0933 119.085 55.64 119.085 55.16C119.085 54.68 119.272 54.2533 119.645 53.88C120.018 53.5067 120.565 53.32 121.285 53.32C121.872 53.32 122.418 53.4667 122.925 53.76C123.458 54.08 123.885 54.56 124.205 55.2C124.658 54.9867 125.005 54.5867 125.245 54C125.485 53.44 125.645 52.7867 125.725 52.04C125.832 51.2933 125.898 50.5733 125.925 49.88C125.952 49.1867 125.965 48.6133 125.965 48.16C125.965 47.6 125.965 46.8267 125.965 45.84C125.965 44.8533 125.965 43.7733 125.965 42.6C125.965 41.4 125.952 40.2267 125.925 39.08C125.925 37.9067 125.925 36.8533 125.925 35.92C125.925 34.9867 125.925 34.3067 125.925 33.88C125.925 32.84 125.872 32.0667 125.765 31.56C125.685 31.0533 125.432 30.7067 125.005 30.52C124.605 30.3067 123.912 30.1333 122.925 30C122.845 29.6267 122.845 29.28 122.925 28.96C124.045 28.7467 125.125 28.4933 126.165 28.2C127.232 27.9067 128.298 27.5467 129.365 27.12ZM124.885 20.32C124.885 19.5467 125.152 18.8933 125.685 18.36C126.245 17.8267 126.912 17.56 127.685 17.56C128.432 17.56 129.072 17.8267 129.605 18.36C130.165 18.8933 130.445 19.5333 130.445 20.28C130.445 20.9733 130.178 21.6133 129.645 22.2C129.112 22.76 128.432 23.04 127.605 23.04C126.858 23.04 126.218 22.7733 125.685 22.24C125.152 21.7067 124.885 21.0667 124.885 20.32ZM142.454 47.48C140.721 47.48 139.374 46.9733 138.414 45.96C137.481 44.92 137.014 43.4267 137.014 41.48V33.4C137.014 32.36 136.961 31.5867 136.854 31.08C136.774 30.5733 136.521 30.2133 136.094 30C135.694 29.7867 135.001 29.6133 134.014 29.48C133.881 29.1333 133.881 28.8 134.014 28.48C135.161 28.32 136.254 28.1467 137.294 27.96C138.361 27.7733 139.427 27.5467 140.494 27.28L141.094 27.56C141.067 28.3867 141.041 29.1733 141.014 29.92C141.014 30.64 141.014 31.32 141.014 31.96V40.04C141.014 41.64 141.254 42.84 141.734 43.64C142.241 44.4133 143.214 44.8 144.654 44.8C145.454 44.8 146.201 44.6267 146.894 44.28C147.614 43.9067 148.294 43.3733 148.934 42.68V33.4C148.934 32.36 148.881 31.5867 148.774 31.08C148.694 30.5733 148.441 30.2133 148.014 30C147.614 29.7867 146.921 29.6133 145.934 29.48C145.854 29.1333 145.854 28.8 145.934 28.48C147.081 28.32 148.174 28.1467 149.214 27.96C150.281 27.7733 151.361 27.5467 152.454 27.28L153.054 27.56C153.027 28.3867 153.001 29.1733 152.974 29.92C152.974 30.64 152.974 31.32 152.974 31.96V42.32C152.974 43.12 153.014 43.72 153.094 44.12C153.201 44.52 153.467 44.8133 153.894 45C154.347 45.16 155.081 45.2933 156.094 45.4C156.121 45.72 156.121 46.0533 156.094 46.4C154.947 46.5067 153.854 46.64 152.814 46.8C151.774 46.96 150.761 47.16 149.774 47.4L149.134 47.12L149.054 44.32C146.841 46.4267 144.641 47.48 142.454 47.48ZM170.334 47.04C170.281 46.6133 170.281 46.2 170.334 45.8C171.161 45.7467 171.774 45.6667 172.174 45.56C172.574 45.4267 172.841 45.16 172.974 44.76C173.108 44.36 173.174 43.72 173.174 42.84V34.76C173.174 33.16 172.921 31.9733 172.414 31.2C171.934 30.4 170.961 30 169.494 30C168.721 30 167.974 30.1467 167.254 30.44C166.534 30.7067 165.748 31.2267 164.894 32V42.44C164.894 43.48 164.948 44.2267 165.054 44.68C165.188 45.1333 165.454 45.4267 165.854 45.56C166.254 45.6667 166.881 45.7467 167.734 45.8C167.788 46.2 167.788 46.6133 167.734 47.04C166.988 47.04 166.201 47.0267 165.374 47C164.574 46.9733 163.708 46.96 162.774 46.96C161.921 46.96 161.081 46.9733 160.254 47C159.428 47.0267 158.614 47.04 157.814 47.04C157.734 46.6133 157.734 46.2 157.814 45.8C158.721 45.7467 159.388 45.6667 159.814 45.56C160.241 45.4267 160.521 45.16 160.654 44.76C160.788 44.36 160.854 43.72 160.854 42.84V33.88C160.854 32.84 160.801 32.0667 160.694 31.56C160.614 31.0533 160.361 30.7067 159.934 30.52C159.534 30.3067 158.841 30.1333 157.854 30C157.774 29.6267 157.774 29.28 157.854 28.96C160.148 28.5067 162.254 27.8933 164.174 27.12L164.854 27.36V30.36C166.081 29.24 167.281 28.4533 168.454 28C169.628 27.5467 170.748 27.32 171.814 27.32C173.574 27.32 174.921 27.84 175.854 28.88C176.788 29.92 177.254 31.4133 177.254 33.36V42.44C177.254 43.48 177.308 44.2267 177.414 44.68C177.548 45.1333 177.814 45.4267 178.214 45.56C178.614 45.6667 179.254 45.7467 180.134 45.8C180.188 46.2 180.188 46.6133 180.134 47.04C179.334 47.04 178.548 47.0267 177.774 47C177.028 46.9733 176.148 46.96 175.134 46.96C174.148 46.96 173.281 46.9733 172.534 47C171.814 47.0267 171.081 47.04 170.334 47.04Z" fill="black"/>
</svg>
